PathFileType	4	(X/Y/Z)	E:\Qualisys_Data\Carbon_Farble_Plate\Data\Amateur_Runner\S1\T1\S1T1V23_c3d.trc
DataRate	CameraRate	NumFrames	NumMarkers	Units	OrigDataRate	OrigDataStartFrame	OrigNumFrames
200.000000	200.000000	4	39	mm	200.000000	170	273
Frame#	Time	LSHO			RSHO			LICST			RICST			LASIS			LHEEL			RASIS			LTROC			RTROC			SACR			LTH1			LSK4			LTH2			LTH3			RHM5			LSK2			LTH4			RTH1			LTOE			RTH2			RTH3			RTH4			LLEP			RLEP			LSK1			LSK3			RSK1			LHM5			RSK2			LFT1			RSK3			RSK4			LLME			RLME			RTOE			RHEEL			RFT1			RFT2			LFT2			
		X1	Y1	Z1	X2	Y2	Z2	X3	Y3	Z3	X4	Y4	Z4	X5	Y5	Z5	X6	Y6	Z6	X7	Y7	Z7	X8	Y8	Z8	X9	Y9	Z9	X10	Y10	Z10	X11	Y11	Z11	X12	Y12	Z12	X13	Y13	Z13	X14	Y14	Z14	X15	Y15	Z15	X16	Y16	Z16	X17	Y17	Z17	X18	Y18	Z18	X19	Y19	Z19	X20	Y20	Z20	X21	Y21	Z21	X22	Y22	Z22	X23	Y23	Z23	X24	Y24	Z24	X25	Y25	Z25	X26	Y26	Z26	X27	Y27	Z27	X28	Y28	Z28	X29	Y29	Z29	X30	Y30	Z30	X31	Y31	Z31	X32	Y32	Z32	X33	Y33	Z33	X34	Y34	Z34	X35	Y35	Z35	X36	Y36	Z36	X37	Y37	Z37	X38	Y38	Z38	X39	Y39	Z39	

171	0.85	797.4921264648438	1497.096801757812	-506.3936462402344	822.8771362304688	1470.656494140625	-179.1159820556641	788.7796020507812	1021.580444335938	-478.1904296875	790.0584716796875	1028.163330078125	-178.6997680664062	833.0460815429688	983.7880249023438	-451.124755859375	693.7880859375	306.5662841796875	-388.7789611816406	826.4461669921875	977.595703125	-186.861328125	747.1438598632812	898.86083984375	-502.8797302246094	703.3450317382812	898.347900390625	-166.23876953125	670.6676635742188	1039.031005859375	-325.3331298828125	935.5633544921876	842.9506225585938	-468.6922912597656	804.69775390625	424.5558776855469	-421.8171997070312	880.4483642578125	786.6073608398438	-503.9463500976562	1004.569091796875	765.3687133789062	-459.5843811035156	499.6969909667969	53.51957702636719	-197.9637908935547	876.7269287109375	491.8997802734375	-454.7221984863281	943.47265625	709.7459106445312	-484.2650146484375	801.700439453125	751.0548095703125	-188.1895751953125	900.988525390625	156.1044311523438	-392.2399291992188	728.0177612304688	765.3882446289062	-158.9682159423828	777.03857421875	653.0286865234375	-201.6725463867188	700.5014038085938	670.5818481445312	-178.6784515380859	1049.051391601562	604.78125	-447.0607604980469	679.8467407226562	500.5150451660156	-223.8551635742188	933.3756713867188	430.7124938964844	-446.2339172363281	856.1793212890625	366.0488586425781	-442.4416809082031	576.8613891601562	339.7470397949219	-209.5133666992188	838.6398315429688	178.3106079101562	-450.7532348632812	508.9957580566406	384.3024597167969	-216.4587860107422	689.38134765625	280.8725280761719	-359.225830078125	522.8425903320312	255.2824401855469	-221.1433410644531	457.5210571289062	301.0975646972656	-240.0923461914062	751.3764038085938	298.103271484375	-436.3696899414062	421.7719421386719	165.2360687255859	-220.3559265136719	569.333251953125	50.34239196777344	-280.7228698730469	339.074462890625	148.8090515136719	-262.2551574707031	341.1175842285156	118.2877044677734	-294.0097351074219	336.37255859375	123.7638244628906	-235.9412689208984	681.5413208007812	279.5902099609375	-413.9151611328125
172	0.855	815.565185546875	1500.735595703125	-507.2575988769531	845.902587890625	1475.541381835938	-180.7538604736328	812.0169067382812	1026.152954101562	-478.0809936523438	814.04296875	1030.937377929688	-179.313232421875	855.9227294921875	988.0969848632812	-451.2593383789062	731.4521484375	293.863037109375	-389.3097534179688	849.7559204101562	979.9110107421876	-188.0509796142578	771.32958984375	903.8765258789062	-504.0625610351562	725.8096923828125	902.1448974609376	-166.9190368652344	693.7919921875	1042.807861328125	-325.8700256347656	959.4581298828124	848.25732421875	-467.7711486816406	836.54150390625	417.47314453125	-421.7060852050781	904.916259765625	792.3264770507812	-504.2069091796875	1028.320678710938	770.46875	-458.8557434082031	501.1567077636719	54.4383430480957	-198.0175170898438	904.8857421875	488.488525390625	-455.1835021972656	967.4124755859376	715.1277465820312	-484.6730651855469	820.2942504882812	753.1316528320312	-189.9109497070312	946.408447265625	154.4642791748047	-392.7774047851562	747.57421875	769.54931640625	-159.6333465576172	792.9423217773438	656.1054077148438	-204.1360473632812	717.3404541015625	675.6122436523438	-179.2172546386719	1072.513793945312	609.783935546875	-447.0550231933594	690.7159423828125	506.5028991699219	-225.2192840576172	964.6321411132812	430.0421447753906	-446.4370727539062	891.3242797851562	361.8513793945312	-442.6173400878906	585.1759033203125	347.2173767089844	-209.4406433105469	882.4283447265625	173.5019836425781	-451.0465393066406	517.1868896484375	392.5441589355469	-216.8592071533203	727.9550170898438	268.2166748046875	-359.275390625	531.2509765625	262.8543701171875	-220.3968963623047	466.0552368164062	308.791259765625	-240.4160461425781	789.5777587890625	288.5949096679688	-436.724853515625	428.9534912109375	172.3257141113281	-219.8845367431641	571.1643676757812	50.22366333007812	-280.3977355957031	346.4488830566406	158.0281677246094	-262.6992492675781	347.5445556640625	127.929931640625	-294.1644592285156	342.6013793945312	133.3190460205078	-236.7686309814453	721.4082641601562	266.5542602539062	-413.3393249511719
173	0.86	833.76220703125	1503.651611328125	-508.1471557617188	868.6044921875	1480.178955078125	-182.6555786132812	835.36328125	1030.670166015625	-478.2870483398438	837.9744262695312	1033.081176757812	-180.2022705078125	878.8738403320312	992.0894165039062	-451.2997131347656	769.5523681640625	281.7423095703125	-388.90478515625	873.4345092773438	982.297119140625	-188.7982177734375	795.3618774414062	908.943115234375	-505.2387390136719	748.6265258789062	906.2257080078124	-167.2260894775391	717.3228149414062	1046.4111328125	-326.5848083496094	983.39404296875	853.140625	-466.5744323730469	868.4627685546875	410.2782287597656	-421.9949645996094	928.8690185546876	797.6343383789062	-504.1846618652344	1051.895629882812	775.3123779296875	-457.990966796875	503.3169250488281	56.12788772583008	-197.7642974853516	933.2453002929688	484.18017578125	-455.6465759277344	991.4371948242188	720.2036743164062	-484.8048400878906	839.129150390625	755.8606567382812	-190.9781494140625	990.8914794921876	152.8418579101562	-392.8535461425781	766.99072265625	774.0032958984375	-160.1312255859375	808.8128662109375	659.4735717773438	-205.3505554199219	734.1602783203125	680.8634643554688	-179.8680877685547	1095.499145507812	614.1199951171875	-447.237060546875	702.4180297851562	513.0358276367188	-225.0419616699219	995.7984008789062	429.1056213378906	-446.7324523925781	926.0874633789062	356.3866271972656	-442.5462951660156	594.7789916992188	354.9990234375	-208.6590576171875	926.2545776367188	168.8736267089844	-451.0171813964844	527.1170043945312	400.2976989746094	-216.5303802490234	767.327880859375	255.3894500732422	-359.3535766601562	540.46337890625	270.6632690429688	-218.9441223144531	475.7095947265625	316.9143371582031	-240.596435546875	827.6634521484375	279.0938720703125	-436.7041931152344	437.2943420410156	180.210205078125	-219.2469177246094	573.2687377929688	50.22667694091797	-279.8330383300781	355.3123474121094	168.4120178222656	-263.5281372070312	355.4513854980469	138.5348052978516	-294.8921813964844	350.4150390625	143.8944244384766	-237.6438140869141	760.56494140625	253.5328674316406	-413.4342346191406
174	0.865	852.435791015625	1506.767333984375	-508.7603759765625	891.4136352539062	1484.675048828125	-184.0350494384766	858.9757690429688	1035.117065429688	-478.6109008789062	862.404296875	1036.020385742188	-180.9202728271484	901.9735107421876	996.0833740234376	-451.9230041503906	808.1519775390625	269.3497619628906	-388.9492492675781	897.2003173828125	984.6512451171876	-189.7636566162109	818.8955078125	913.4110717773438	-505.8642272949219	770.9326171875	910.6346435546876	-167.9758148193359	741.9915771484375	1051.2275390625	-326.4575500488281	1006.914306640625	857.7954711914062	-465.8676452636719	900.3702392578125	402.9473266601562	-422.1602478027344	952.7454223632812	802.3832397460938	-504.395263671875	1075.5966796875	779.7536010742188	-457.1654663085938	504.5082397460938	57.0118522644043	-198.5137176513672	960.5838012695312	480.5866088867188	-457.513671875	1014.880554199219	724.8387451171875	-484.8542175292969	858.0635375976562	758.2947998046875	-191.9194030761719	1035.618408203125	151.4836883544922	-392.9332580566406	786.7696533203125	778.587158203125	-160.9089813232422	825.0872802734375	663.0440673828125	-206.2556762695312	751.0584106445312	686.3558349609375	-180.1561737060547	1118.380737304688	618.203125	-447.1940002441406	714.67529296875	519.3860473632812	-224.5329132080078	1026.66650390625	428.0451354980469	-446.8454895019531	960.1609497070312	351.8238830566406	-442.5779724121094	604.7334594726562	362.4857788085938	-207.5228118896484	970.2044067382812	164.4664764404297	-451.2924499511719	537.6735229492188	408.261962890625	-216.7252197265625	807.10205078125	243.1610870361328	-358.9423217773438	550.6922607421875	278.1966247558594	-217.7245788574219	486.3409423828125	324.339599609375	-240.7887268066406	866.3359375	269.7142944335938	-436.2601318359375	447.0477294921875	188.0248718261719	-218.7445831298828	575.52685546875	50.25962066650391	-278.7419738769531	367.3812255859375	180.0499572753906	-264.2987060546875	364.7969970703125	149.9662933349609	-296.2983093261719	359.1033325195312	154.4986572265625	-240.2842864990234	800.2147827148438	240.8086700439453	-413.8597412109375
